<svg version="1.1" id="Layer_1" xmlns="http://www.w3.org/2000/svg" xmlns:xlink="http://www.w3.org/1999/xlink" x="0px" y="0px" width="32px" height="32px" viewBox="0 0 32 32" enable-background="new 0 0 32 32" xml:space="preserve">
  <g id="icon">
    <path d="M29.313,1H13.688C12.756,1,12,1.756,12,2.688v5.89c0.738,0.028,1.403,0.116,2,0.265V3h15v18H16.256c-0.089,0.147,-0.181,0.292,-0.277,0.433c0.438,0.154,0.845,0.295,1.222,0.426c1.235,0.428,2.226,0.773,3.025,1.141h9.086c0.932,0,1.688,-0.756,1.688,-1.688V2.688C31,1.756,30.244,1,29.313,1z" fill="#217346"/>
    <path d="M29,3v18H16.256c1.229,-2.024,1.798,-4.489,1.798,-6.168c0,-1.281,-0.144,-3.141,-1.392,-4.501c-0.658,-0.717,-1.539,-1.21,-2.662,-1.489V3H29z" fill="#FFFFFF"/>
    <path d="M12,6h-2V4h2V6zM11.463,8.567c0,0,0.004,0,0.007,0c0.181,0,0.357,0.004,0.53,0.011V8h-2v0.652C10.455,8.596,10.941,8.567,11.463,8.567z" fill="#797979"/>
    <path d="M12,8.578V8h1v0.658C12.682,8.618,12.35,8.591,12,8.578zM13,4h-1v2h1V4z" fill="#F1F2F2"/>
    <path d="M15,6h-2V4h2V6zM21.5,18h-3.944c-0.09,0.308,-0.192,0.619,-0.308,0.93c0.074,0.044,0.159,0.07,0.252,0.07h4c0.276,0,0.5,-0.224,0.5,-0.5S21.776,18,21.5,18zM22,11.5c0,-0.276,-0.224,-0.5,-0.5,-0.5h-4c-0.104,0,-0.2,0.031,-0.28,0.085c0.175,0.296,0.315,0.603,0.425,0.915H21.5C21.776,12,22,11.776,22,11.5zM17.5,6h9c0.276,0,0.5,-0.224,0.5,-0.5s-0.224,-0.5,-0.5,-0.5h-9c-0.276,0,-0.5,0.224,-0.5,0.5S17.224,6,17.5,6zM26.5,7h-9c-0.276,0,-0.5,0.224,-0.5,0.5s0.224,0.5,0.5,0.5h9c0.276,0,0.5,-0.224,0.5,-0.5S26.776,7,26.5,7zM15,9.175V8h-2v0.658C13.754,8.754,14.42,8.925,15,9.175zM26.5,9h-9c-0.276,0,-0.5,0.224,-0.5,0.5s0.224,0.5,0.5,0.5h9c0.276,0,0.5,-0.224,0.5,-0.5S26.776,9,26.5,9zM26.5,14h-8.471c0.019,0.295,0.025,0.575,0.025,0.832c0,0.054,-0.003,0.112,-0.004,0.168H26.5c0.276,0,0.5,-0.224,0.5,-0.5S26.776,14,26.5,14zM26.5,16h-8.525c-0.04,0.321,-0.097,0.656,-0.17,1H26.5c0.276,0,0.5,-0.224,0.5,-0.5S26.776,16,26.5,16z" fill="#B4B4B5"/>
    <path d="M21.934,27.117c-0.528,-2.666,-1.468,-2.711,-6.605,-4.525c-0.75,-0.282,-0.962,-0.687,-0.906,-1.266c1.449,-1.732,2.322,-4.535,2.322,-6.494c0,-3.034,-1.035,-4.956,-5.276,-4.956c-0.017,0,0.006,0,0,0c-4.24,0,-5.19,1.922,-5.19,4.956c0,1.959,0.87,4.756,2.319,6.489c0.056,0.579,-0.157,0.987,-0.907,1.269c-5.137,1.815,-6.078,1.86,-6.606,4.526c-0.159,1.072,-0.185,1.521,0.238,2.708c0.476,1.337,7.203,1.162,10.147,1.162c0.012,0,-0.02,0,0,0c2.945,0,9.75,0.175,10.226,-1.161C22.118,28.638,22.092,28.189,21.934,27.117z" fill-rule="evenodd" fill="#217346"/>
  </g>
</svg>