<svg version="1.1" id="Layer_1" xmlns="http://www.w3.org/2000/svg" xmlns:xlink="http://www.w3.org/1999/xlink" x="0px" y="0px" width="16px" height="16px" viewBox="0 0 16 16" enable-background="new 0 0 16 16" xml:space="preserve">
  <g id="icon">
    <path d="M14.65,0h-9.3C4.604,0,4,0.604,4,1.35v2.008c0.546,-0.218,1.207,-0.327,1.997,-0.327c0,0,0.002,0,0.003,0V2h8v9h-3.371c1.16,0.459,1.791,0.915,2.132,2h1.889c0.746,0,1.35,-0.604,1.35,-1.35v-10.3C16,0.604,15.396,0,14.65,0z" fill="#217346"/>
    <path d="M6,2v1.031c0,0,0,0,0,0c2.681,0,3.984,1.24,3.984,3.791c0,1.158,-0.408,2.523,-1.038,3.578c0.132,0.046,0.258,0.089,0.379,0.131c0.496,0.171,0.928,0.321,1.304,0.469H14V2H6z" fill="#FFFFFF"/>
    <path d="M4,3.358V3H3v1.002C3.275,3.729,3.607,3.515,4,3.358z" fill="#797979"/>
    <path d="M4,3.358V3h1v0.098C4.63,3.151,4.298,3.238,4,3.358z" fill="#F1F2F2"/>
    <path d="M11,9.5c0,0.276,-0.224,0.5,-0.5,0.5H9.166c0.162,-0.317,0.304,-0.655,0.422,-1H10.5C10.776,9,11,9.224,11,9.5zM9.027,4H12.5c0.276,0,0.5,-0.224,0.5,-0.5s-0.224,-0.5,-0.5,-0.5H7.5c-0.126,0,-0.24,0.048,-0.328,0.125C7.956,3.263,8.573,3.554,9.027,4zM5.997,3.031c0,0,0.002,0,0.003,0V3H5v0.098C5.307,3.053,5.639,3.031,5.997,3.031zM12.5,5H9.681c0.119,0.299,0.202,0.632,0.251,1H12.5c0.276,0,0.5,-0.224,0.5,-0.5S12.776,5,12.5,5zM12.5,7H9.98c-0.011,0.323,-0.052,0.66,-0.12,1H12.5c0.276,0,0.5,-0.224,0.5,-0.5S12.776,7,12.5,7z" fill="#B4B4B5"/>
    <path d="M11.918,13.74c-0.299,-1.501,-0.83,-1.526,-3.735,-2.548c-0.424,-0.159,-0.544,-0.387,-0.512,-0.713c0.82,-0.976,1.313,-2.554,1.313,-3.657c0,-1.709,-0.585,-2.791,-2.984,-2.791c-0.01,0,0.003,0,0,0c-2.398,0,-2.935,1.082,-2.935,2.791c0,1.103,0.492,2.679,1.311,3.654c0.032,0.326,-0.089,0.556,-0.513,0.714C0.958,12.212,0.426,12.238,0.127,13.739c-0.09,0.603,-0.105,0.856,0.134,1.525c0.269,0.753,4.073,0.654,5.739,0.654c0.007,0,-0.011,0,0,0c1.665,0,5.514,0.099,5.783,-0.654C12.023,14.596,12.008,14.344,11.918,13.74z" fill-rule="evenodd" fill="#217346"/>
  </g>
</svg>
